<svg xmlns="http://www.w3.org/2000/svg" xmlns:xlink="http://www.w3.org/1999/xlink" width="42" height="35"><defs><path id="a" d="M748.64 222.75a.7.7 0 0 0 0 1.39.7.7 0 0 0 0-1.38zm2.78 0a.7.7 0 0 0 0 1.39.7.7 0 0 0 0-1.38zm2.78 0a.7.7 0 0 0 0 1.39.7.7 0 0 0 0-1.38zm25.04 0a.7.7 0 1 0 .68.7.7.7 0 0 0-.68-.7zm-16.7 0a.7.7 0 0 0 0 1.39.7.7 0 0 0 .01-1.38zm-2.77 0a.7.7 0 0 0-.01 1.39.7.7 0 0 0 0-1.38zm-2.79 0a.7.7 0 0 0 0 1.39.7.7 0 0 0 0-1.38zm19.47 0a.7.7 0 1 0 .7.7.7.7 0 0 0-.7-.7zm-11.12 0a.7.7 0 0 0-.01 1.39.7.7 0 0 0 .01-1.38zm8.34 0a.7.7 0 0 0 0 1.39.7.7 0 0 0 0-1.38zm-5.56 0a.7.7 0 0 0 0 1.39.7.7 0 0 0 0-1.38zm2.78 0a.7.7 0 0 0 0 1.39.7.7 0 0 0 0-1.38zm-18.07 9.17c-.25-.19-.4-.47-.44-.77a1 1 0 0 1 .23-.76c.25-.28.56-.49.9-.6v2.67zm2.78 3.9c.24.19.4.47.43.77a1 1 0 0 1-.23.77c-.24.27-.55.48-.9.6v-2.68zm-.7-8.24a.7.7 0 0 0-1.4 0v.76c-.76.15-1.45.56-1.95 1.15-.43.5-.63 1.15-.55 1.8.07.68.42 1.3.96 1.72l1.55 1.2v3.76a2.07 2.07 0 0 1-1.4-1.95.7.7 0 0 0-1.38 0 3.47 3.47 0 0 0 2.78 3.39v.6a.7.7 0 0 0 1.39 0v-.61a3.47 3.47 0 0 0 1.96-1.16c.42-.5.62-1.15.55-1.8a2.52 2.52 0 0 0-.96-1.72l-1.55-1.2v-3.75a2.07 2.07 0 0 1 1.39 1.95.7.7 0 0 0 1.39 0 3.47 3.47 0 0 0-2.78-3.38zm13 10.16c.14-.13.2-.3.2-.5a.7.7 0 0 0-.2-.48.73.73 0 0 0-.98 0 .7.7 0 0 0 0 .98.7.7 0 0 0 .99 0zm-3.47-4.84a.7.7 0 0 0 0-.98.73.73 0 0 0-.99 0 .7.7 0 0 0 0 .98.7.7 0 0 0 1 0zm12.23-5.81a.7.7 0 0 0-.2.49c0 .18.07.35.2.49.13.12.3.2.5.2a.7.7 0 0 0 .49-1.18.73.73 0 0 0-1 0zm-2.29.49a.7.7 0 0 0-.7-.7h-10.43a.7.7 0 1 0 0 1.39h10.43a.7.7 0 0 0 .7-.7zm-11.82 9.67a.7.7 0 0 0 .7.69h1.39a.7.7 0 1 0 0-1.38h-1.4a.7.7 0 0 0-.7.68zm14.6-.7h-6.95a.7.7 0 0 0 0 1.39h6.95a.7.7 0 1 0 0-1.39zm0-4.83h-10.43a.7.7 0 1 0 0 1.38h10.43a.7.7 0 1 0 0-1.38zm-.5 9.87a.7.7 0 0 0-.2.5c0 .17.08.35.2.48a.7.7 0 0 0 1 0c.12-.13.2-.3.2-.49a.7.7 0 0 0-.2-.49.73.73 0 0 0-1 0zm-2.98-.2h-10.43a.7.7 0 1 0 0 1.38h10.43a.7.7 0 1 0 0-1.38zm9.04-19.5V220h-37.55v1.89a1.38 1.38 0 0 1 .7-2.58h36.16a1.38 1.38 0 0 1 .7 2.58zm-1.4 25.41h.01zm-.69-.69l-4.17 4.15-4.17-4.15-4.18 4.15-4.16-4.15-4.18 4.15-4.17-4.15-4.17 4.15-4.17-4.15-.7.7v-25.92h34.77v25.91zm4.18-25.91a2.77 2.77 0 0 0-2.78-2.77h-36.16a2.75 2.75 0 0 0-.7 5.43v27.28l2.08-2.07 4.18 4.14 4.17-4.14 4.17 4.14 4.18-4.14 4.17 4.14 4.17-4.14 4.17 4.14 4.18-4.14 2.08 2.07v-27.28a2.76 2.76 0 0 0 2.09-2.66z"/></defs><use fill="#b5b5b5" xlink:href="#a" transform="translate(-743 -218)"/></svg>