<svg xmlns="http://www.w3.org/2000/svg" xmlns:xlink="http://www.w3.org/1999/xlink" width="38" height="31"><defs><path id="a" d="M746.96 306.84v-4h33.96v4zm19.37 1.5l.7 4.08h-6.2l.6-4.1v-.01h4.9v.02zm14.59-23.25v16.28h-33.96v-16.28zm.24-1.47h-34.45c-.68 0-1.22.55-1.22 1.23v22.23c0 .68.54 1.23 1.22 1.23h13.23l-.6 4.11h-.49a.74.74 0 0 0 0 1.47h10.17a.73.73 0 1 0 0-1.47h-.5l-.7-4.12h13.34c.68 0 1.23-.54 1.23-1.22v-22.23c0-.68-.55-1.23-1.23-1.23z"/></defs><use fill="#b5b5b5" xlink:href="#a" transform="translate(-745 -283)"/></svg>