<?xml version="1.0" encoding="utf-8"?><svg xmlns="http://www.w3.org/2000/svg" xmlns:xlink="http://www.w3.org/1999/xlink"><symbol viewBox="0 0 42 35" id="assest" xmlns="http://www.w3.org/2000/svg"><defs><path id="aa" d="M748.64 222.75a.7.7 0 0 0 0 1.39.7.7 0 0 0 0-1.38zm2.78 0a.7.7 0 0 0 0 1.39.7.7 0 0 0 0-1.38zm2.78 0a.7.7 0 0 0 0 1.39.7.7 0 0 0 0-1.38zm25.04 0a.7.7 0 1 0 .68.7.7.7 0 0 0-.68-.7zm-16.7 0a.7.7 0 0 0 0 1.39.7.7 0 0 0 .01-1.38zm-2.77 0a.7.7 0 0 0-.01 1.39.7.7 0 0 0 0-1.38zm-2.79 0a.7.7 0 0 0 0 1.39.7.7 0 0 0 0-1.38zm19.47 0a.7.7 0 1 0 .7.7.7.7 0 0 0-.7-.7zm-11.12 0a.7.7 0 0 0-.01 1.39.7.7 0 0 0 .01-1.38zm8.34 0a.7.7 0 0 0 0 1.39.7.7 0 0 0 0-1.38zm-5.56 0a.7.7 0 0 0 0 1.39.7.7 0 0 0 0-1.38zm2.78 0a.7.7 0 0 0 0 1.39.7.7 0 0 0 0-1.38zm-18.07 9.17c-.25-.19-.4-.47-.44-.77a1 1 0 0 1 .23-.76c.25-.28.56-.49.9-.6v2.67zm2.78 3.9c.24.19.4.47.43.77a1 1 0 0 1-.23.77c-.24.27-.55.48-.9.6v-2.68zm-.7-8.24a.7.7 0 0 0-1.4 0v.76c-.76.15-1.45.56-1.95 1.15-.43.5-.63 1.15-.55 1.8.07.68.42 1.3.96 1.72l1.55 1.2v3.76a2.07 2.07 0 0 1-1.4-1.95.7.7 0 0 0-1.38 0 3.47 3.47 0 0 0 2.78 3.39v.6a.7.7 0 0 0 1.39 0v-.61a3.47 3.47 0 0 0 1.96-1.16c.42-.5.62-1.15.55-1.8a2.52 2.52 0 0 0-.96-1.72l-1.55-1.2v-3.75a2.07 2.07 0 0 1 1.39 1.95.7.7 0 0 0 1.39 0 3.47 3.47 0 0 0-2.78-3.38zm13 10.16c.14-.13.2-.3.2-.5a.7.7 0 0 0-.2-.48.73.73 0 0 0-.98 0 .7.7 0 0 0 0 .98.7.7 0 0 0 .99 0zm-3.47-4.84a.7.7 0 0 0 0-.98.73.73 0 0 0-.99 0 .7.7 0 0 0 0 .98.7.7 0 0 0 1 0zm12.23-5.81a.7.7 0 0 0-.2.49c0 .18.07.35.2.49.13.12.3.2.5.2a.7.7 0 0 0 .49-1.18.73.73 0 0 0-1 0zm-2.29.49a.7.7 0 0 0-.7-.7h-10.43a.7.7 0 1 0 0 1.39h10.43a.7.7 0 0 0 .7-.7zm-11.82 9.67a.7.7 0 0 0 .7.69h1.39a.7.7 0 1 0 0-1.38h-1.4a.7.7 0 0 0-.7.68zm14.6-.7h-6.95a.7.7 0 0 0 0 1.39h6.95a.7.7 0 1 0 0-1.39zm0-4.83h-10.43a.7.7 0 1 0 0 1.38h10.43a.7.7 0 1 0 0-1.38zm-.5 9.87a.7.7 0 0 0-.2.5c0 .17.08.35.2.48a.7.7 0 0 0 1 0c.12-.13.2-.3.2-.49a.7.7 0 0 0-.2-.49.73.73 0 0 0-1 0zm-2.98-.2h-10.43a.7.7 0 1 0 0 1.38h10.43a.7.7 0 1 0 0-1.38zm9.04-19.5V220h-37.55v1.89a1.38 1.38 0 0 1 .7-2.58h36.16a1.38 1.38 0 0 1 .7 2.58zm-1.4 25.41h.01zm-.69-.69l-4.17 4.15-4.17-4.15-4.18 4.15-4.16-4.15-4.18 4.15-4.17-4.15-4.17 4.15-4.17-4.15-.7.7v-25.92h34.77v25.91zm4.18-25.91a2.77 2.77 0 0 0-2.78-2.77h-36.16a2.75 2.75 0 0 0-.7 5.43v27.28l2.08-2.07 4.18 4.14 4.17-4.14 4.17 4.14 4.18-4.14 4.17 4.14 4.17-4.14 4.17 4.14 4.18-4.14 2.08 2.07v-27.28a2.76 2.76 0 0 0 2.09-2.66z"/></defs><use fill="#b5b5b5" xlink:href="#aa" transform="translate(-743 -218)"/></symbol><symbol viewBox="0 0 42 31" id="card" xmlns="http://www.w3.org/2000/svg"><defs><path id="ba" d="M748.88 167.5h2.61l-.01.17v1.2h-2.77v-1.2c0-.1.07-.17.17-.18zm9.34 0a.18.18 0 0 1 .18.17v1.03a.18.18 0 0 1-.18.18h-2.42c-.86 0-1.56.7-1.56 1.56v3.8a.18.18 0 0 1-.18.18h-1.02a.18.18 0 0 1-.18-.18v-6.57a.18.18 0 0 1 .18-.18h5.18zm0 6.92h-2.61l.02-.18v-1.2h2.77v1.2c0 .1-.08.18-.18.18zm.18-2.77h-2.77v-1.21a.18.18 0 0 1 .18-.18h2.42l.17-.01v1.4zm-9.7 2.6v-1.22h2.77v1.21l.02.18h-2.61a.18.18 0 0 1-.18-.18zm2.77-2.6h-2.77v-1.39h2.77zm-2.6 4.15h9.35c.86 0 1.56-.7 1.56-1.56v-6.57c0-.86-.7-1.56-1.56-1.57h-9.34c-.87 0-1.56.7-1.56 1.57v6.57c0 .86.7 1.56 1.56 1.56zm27.52 10.4c-.42-.01-.84-.1-1.23-.25a4.82 4.82 0 0 0 0-6.44 3.46 3.46 0 1 1 1.24 6.69zm-8.3-3.47a3.47 3.47 0 0 1 4.7-3.22 4.82 4.82 0 0 0 0 6.44 3.42 3.42 0 0 1-4.7-3.22zm6.92 0c0 .93-.37 1.82-1.04 2.47a3.45 3.45 0 0 1 0-4.94 3.45 3.45 0 0 1 1.05 2.47zm1.39-4.85c-.86 0-1.7.23-2.43.66a4.85 4.85 0 1 0 0 8.38 4.85 4.85 0 1 0 2.43-9.04zm-13.65 6.44a.7.7 0 1 0 .98 0 .73.73 0 0 0-.98 0zm-3.66-.2a.7.7 0 1 0 0 1.38h1.38a.7.7 0 1 0 0-1.38zm-2.78 0h-.68a.7.7 0 1 0 0 1.38h.69a.7.7 0 1 0 0-1.38zm-4.84 0a.7.7 0 1 0 0 1.38h1.39a.7.7 0 1 0 0-1.38zm-2.78 0h-.68a.7.7 0 1 0 0 1.38h.7a.7.7 0 1 0-.01-1.38zm14.55-3.47H757a.7.7 0 0 0 0 1.39h6.23a.7.7 0 1 0 0-1.39zm-9 0H748a.7.7 0 0 0 0 1.39h6.23a.7.7 0 0 0 0-1.39zm29.09 7.47c0 .85-.69 1.53-1.54 1.54h-35.71c-.85 0-1.53-.7-1.53-1.54v-24.63c0-.85.68-1.54 1.53-1.54h35.71c.85 0 1.54.7 1.54 1.54v24.63zm-1.54-27.55h-35.71a2.92 2.92 0 0 0-2.92 2.92v24.63c0 1.61 1.3 2.92 2.92 2.92h35.71c1.62 0 2.92-1.3 2.92-2.92v-24.63c0-1.61-1.3-2.92-2.92-2.92z"/></defs><use fill="#b5b5b5" xlink:href="#ba" transform="translate(-743 -160)"/></symbol><symbol viewBox="0 0 38 31" id="imac" xmlns="http://www.w3.org/2000/svg"><defs><path id="ca" d="M746.96 306.84v-4h33.96v4zm19.37 1.5l.7 4.08h-6.2l.6-4.1v-.01h4.9v.02zm14.59-23.25v16.28h-33.96v-16.28zm.24-1.47h-34.45c-.68 0-1.22.55-1.22 1.23v22.23c0 .68.54 1.23 1.22 1.23h13.23l-.6 4.11h-.49a.74.74 0 0 0 0 1.47h10.17a.73.73 0 1 0 0-1.47h-.5l-.7-4.12h13.34c.68 0 1.23-.54 1.23-1.22v-22.23c0-.68-.55-1.23-1.23-1.23z"/></defs><use fill="#b5b5b5" xlink:href="#ca" transform="translate(-745 -283)"/></symbol><symbol viewBox="0 0 16 14" id="menu" xmlns="http://www.w3.org/2000/svg"><defs><path id="da" d="M1330 33v-2h16v2zm0 6v-2h16v2zm0 6v-2h10v2z"/></defs><use fill="#fff" xlink:href="#da" opacity=".5" transform="translate(-1330 -31)"/></symbol><symbol viewBox="0 0 16 16" id="user" xmlns="http://www.w3.org/2000/svg"><defs><path id="ea" d="M1314.88 33a4 4 0 1 1 8 0 4 4 0 0 1-8 0zm-4 12v-2c0-2.2 3.6-4 8-4s8 1.8 8 4v2z"/></defs><use fill="#fff" xlink:href="#ea" opacity=".5" transform="translate(-1311 -29)"/></symbol><symbol viewBox="0 0 16 16" id="zoom" xmlns="http://www.w3.org/2000/svg"><defs><path id="fa" d="M900 38c0-2.8 2.2-5 5-5s5 2.2 5 5-2.2 5-5 5-5-2.2-5-5zm13.9 7.5l-3.3-3.3c.9-1.2 1.4-2.6 1.4-4.2 0-3.9-3.1-7-7-7s-7 3.1-7 7 3.1 7 7 7c1.6 0 3-.5 4.2-1.4l3.3 3.3z"/></defs><use fill="#fff" xlink:href="#fa" opacity=".5" transform="translate(-898 -31)"/></symbol></svg>