<svg xmlns="http://www.w3.org/2000/svg" xmlns:xlink="http://www.w3.org/1999/xlink" width="42" height="31" viewBox="0 0 42 31"><defs><path id="dposa" d="M748.88 167.5h2.61l-.01.17v1.2h-2.77v-1.2c0-.1.07-.17.17-.18zm9.34 0a.18.18 0 0 1 .18.17v1.03a.18.18 0 0 1-.18.18h-2.42c-.86 0-1.56.7-1.56 1.56v3.8a.18.18 0 0 1-.18.18h-1.02a.18.18 0 0 1-.18-.18v-6.57a.18.18 0 0 1 .18-.18h5.18zm0 6.92h-2.61l.02-.18v-1.2h2.77v1.2c0 .1-.08.18-.18.18zm.18-2.77h-2.77v-1.21a.18.18 0 0 1 .18-.18h2.42l.17-.01v1.4zm-9.7 2.6v-1.22h2.77v1.21l.02.18h-2.61a.18.18 0 0 1-.18-.18zm2.77-2.6h-2.77v-1.39h2.77zm-2.6 4.15h9.35c.86 0 1.56-.7 1.56-1.56v-6.57c0-.86-.7-1.56-1.56-1.57h-9.34c-.87 0-1.56.7-1.56 1.57v6.57c0 .86.7 1.56 1.56 1.56zm27.52 10.4c-.42-.01-.84-.1-1.23-.25a4.82 4.82 0 0 0 0-6.44 3.46 3.46 0 1 1 1.24 6.69zm-8.3-3.47a3.47 3.47 0 0 1 4.7-3.22 4.82 4.82 0 0 0 0 6.44 3.42 3.42 0 0 1-4.7-3.22zm6.92 0c0 .93-.37 1.82-1.04 2.47a3.45 3.45 0 0 1 0-4.94 3.45 3.45 0 0 1 1.05 2.47zm1.39-4.85c-.86 0-1.7.23-2.43.66a4.85 4.85 0 1 0 0 8.38 4.85 4.85 0 1 0 2.43-9.04zm-13.65 6.44a.7.7 0 1 0 .98 0 .73.73 0 0 0-.98 0zm-3.66-.2a.7.7 0 1 0 0 1.38h1.38a.7.7 0 1 0 0-1.38zm-2.78 0h-.68a.7.7 0 1 0 0 1.38h.69a.7.7 0 1 0 0-1.38zm-4.84 0a.7.7 0 1 0 0 1.38h1.39a.7.7 0 1 0 0-1.38zm-2.78 0h-.68a.7.7 0 1 0 0 1.38h.7a.7.7 0 1 0-.01-1.38zm14.55-3.47H757a.7.7 0 0 0 0 1.39h6.23a.7.7 0 1 0 0-1.39zm-9 0H748a.7.7 0 0 0 0 1.39h6.23a.7.7 0 0 0 0-1.39zm29.09 7.47c0 .85-.69 1.53-1.54 1.54h-35.71c-.85 0-1.53-.7-1.53-1.54v-24.63c0-.85.68-1.54 1.53-1.54h35.71c.85 0 1.54.7 1.54 1.54v24.63zm-1.54-27.55h-35.71a2.92 2.92 0 0 0-2.92 2.92v24.63c0 1.61 1.3 2.92 2.92 2.92h35.71c1.62 0 2.92-1.3 2.92-2.92v-24.63c0-1.61-1.3-2.92-2.92-2.92z"/></defs><g><g transform="translate(-743 -160)"><use fill="#b5b5b5" xlink:href="#dposa"/></g></g></svg>